<?xml version="1.0" standalone="no"?>
<!DOCTYPE svg PUBLIC "-//W3C//DTD SVG 20010904//EN"
 "http://www.w3.org/TR/2001/REC-SVG-20010904/DTD/svg10.dtd">
<svg version="1.0" xmlns="http://www.w3.org/2000/svg"
 width="25.000000pt" height="20.000000pt" viewBox="0 0 297.000000 297.000000"
 preserveAspectRatio="xMidYMid meet" fill="currentColor">
<metadata>
Created by potrace 1.10, written by Peter Selinger 2001-2011
</metadata>
<g transform="translate(0.000000,297.000000) scale(0.100000,-0.100000)"
fill="#a3b4c2" stroke="none">
<path d="M1705 2908 c-216 -92 -452 -169 -540 -175 -70 -5 -76 -4 -96 18 -22
26 -22 25 185 -270 123 -175 143 -211 116 -211 -11 0 -360 495 -360 511 0 7 9
9 21 6 18 -5 18 -3 7 11 -7 9 -18 22 -24 27 -6 6 -28 34 -48 63 -21 28 -41 52
-44 52 -15 0 -102 -66 -102 -78 0 -7 18 -37 40 -67 22 -30 40 -57 40 -60 0 -3
12 -24 27 -46 31 -48 34 -45 -80 -89 -226 -88 -436 -81 -653 24 l-91 44 19
-91 c94 -432 361 -803 780 -1082 53 -36 98 -65 100 -65 2 0 2 48 0 107 -6 199
35 414 100 523 35 57 128 170 141 170 7 0 26 -17 43 -38 18 -21 377 -522 799
-1113 422 -590 769 -1076 771 -1078 3 -4 47 25 98 64 18 13 -26 77 -755 1100
-426 596 -790 1110 -810 1141 -36 55 -37 57 -22 92 35 83 143 213 362 435 75
75 131 136 126 136 -6 -1 -73 -28 -150 -61z m-1339 -463 c147 -89 297 -98 456
-28 l46 21 81 -113 c45 -63 81 -117 81 -121 0 -3 -16 -24 -35 -45 -79 -87
-108 -186 -107 -366 0 -78 -4 -123 -10 -123 -25 0 -191 122 -271 199 -140 135
-232 290 -275 466 -23 90 -33 145 -28 145 2 0 30 -16 62 -35z"/>
<path d="M380 2367 c1 -79 60 -233 128 -334 50 -74 180 -196 261 -246 l61 -37
0 89 c0 145 25 231 89 303 l29 33 -64 88 c-36 48 -69 87 -75 87 -5 0 -23 -7
-38 -15 -16 -8 -60 -20 -98 -26 -83 -14 -170 4 -245 51 -47 29 -48 29 -48 7z"/>
</g>
</svg>
