<?xml version="1.0" standalone="no"?>
<!DOCTYPE svg PUBLIC "-//W3C//DTD SVG 20010904//EN"
 "http://www.w3.org/TR/2001/REC-SVG-20010904/DTD/svg10.dtd">
<svg version="1.0" xmlns="http://www.w3.org/2000/svg"
 width="25.000000pt" height="20.000000pt" viewBox="0 0 300.000000 251.000000"
 preserveAspectRatio="xMidYMid meet">
<metadata>
Created by potrace 1.10, written by Peter Selinger 2001-2011
</metadata>
<g transform="translate(0.000000,251.000000) scale(0.100000,-0.100000)"
fill="#a3b4c2" stroke="none">
<path d="M1384 2386 c-31 -14 -74 -60 -74 -79 0 -6 9 -21 21 -33 24 -25 23
-26 -56 -39 -140 -23 -275 -185 -245 -295 18 -66 83 -110 162 -110 34 0 46 6
74 36 22 22 34 30 34 20 0 -22 37 -38 71 -31 16 4 55 29 86 56 65 57 83 61 83
20 0 -34 31 -61 61 -54 11 3 28 18 39 34 17 22 30 29 68 32 l47 3 -55 2 c-37
1 -63 -3 -78 -14 -18 -12 -26 -13 -37 -4 -23 19 -18 46 16 85 65 74 -44 25
-131 -59 -79 -76 -106 -88 -132 -56 -21 26 -16 53 15 88 11 12 16 22 10 22 -6
0 -23 -14 -37 -30 l-25 -31 -16 31 c-9 17 -27 36 -40 42 -46 21 -105 -12 -105
-57 0 -50 70 -53 85 -5 13 40 35 15 35 -39 0 -43 -31 -65 -81 -58 -107 14
-133 135 -49 229 68 78 212 137 340 138 l45 1 -38 13 c-49 18 -77 43 -77 71 0
30 19 45 57 45 46 0 89 -20 186 -84 123 -81 207 -113 322 -121 l70 -5 -85 19
c-47 10 -101 25 -120 33 l-35 15 74 13 c79 13 143 8 178 -16 19 -12 22 -12 17
0 -14 36 -128 47 -223 22 l-53 -14 -92 59 c-167 109 -245 135 -312 105z"/>
<path d="M2224 2331 c-40 -18 -78 -59 -104 -111 -15 -29 -5 -20 34 34 68 91
203 100 289 19 15 -15 27 -22 27 -16 0 19 -68 72 -107 82 -55 15 -92 13 -139
-8z"/>
<path d="M2275 2301 c-45 -11 -68 -26 -108 -70 -48 -53 -54 -79 -28 -130 12
-22 23 -41 25 -41 3 0 14 15 25 34 31 50 79 70 133 56 24 -7 53 -21 65 -32 46
-42 68 -173 52 -298 -24 -187 -24 -195 5 -254 37 -75 75 -101 146 -100 61 1
110 22 134 56 33 46 9 183 -40 232 -26 25 -74 36 -74 16 0 -5 9 -10 21 -10 29
0 57 -17 70 -42 l12 -21 -28 21 c-46 36 -61 30 -61 -25 1 -42 -1 -47 -27 -56
-21 -7 -36 -6 -55 4 l-27 14 40 3 c41 4 65 17 65 35 0 7 -4 7 -12 -1 -7 -7
-29 -12 -50 -12 -61 0 -66 23 -39 183 18 111 20 144 11 204 -12 84 -41 178
-55 178 -5 0 -24 10 -41 22 -25 18 -104 45 -124 42 -3 -1 -18 -4 -35 -8z"/>
<path d="M2077 2121 c-14 -68 -192 -201 -352 -262 -76 -30 -215 -61 -239 -54
-6 2 -26 6 -43 9 l-32 5 20 -52 c11 -29 27 -58 36 -64 56 -43 298 23 474 127
82 49 182 139 199 179 11 27 9 35 -20 86 -17 30 -33 55 -34 55 -2 0 -6 -13 -9
-29z"/>
<path d="M2017 2082 c-81 -82 -269 -180 -406 -212 -30 -7 -83 -10 -122 -8 -73
6 -94 -3 -58 -23 30 -16 136 -6 224 21 148 46 332 157 393 238 35 45 24 40
-31 -16z"/>
<path d="M2160 1996 c0 -8 79 -151 177 -318 143 -246 177 -312 181 -349 2 -26
0 -49 -5 -52 -5 -3 -92 140 -194 318 -101 179 -188 325 -192 325 -5 0 7 -28
26 -62 19 -35 101 -191 182 -347 158 -303 156 -295 102 -335 -24 -17 -29 -18
-41 -6 -7 8 -91 150 -186 315 -95 165 -179 306 -186 314 -41 45 -8 -30 146
-333 l172 -336 -55 0 c-39 0 -58 5 -69 18 -8 9 -88 139 -178 287 -89 149 -168
275 -174 282 -6 7 -16 9 -24 4 -11 -7 -9 -19 12 -59 14 -28 26 -53 26 -56 0
-2 -15 3 -32 12 -25 13 -59 17 -133 17 -89 0 -106 -3 -155 -27 -31 -15 -74
-43 -97 -62 l-41 -36 -5 30 c-7 33 -39 47 -84 35 -14 -3 -70 -48 -123 -100
-73 -71 -105 -95 -131 -99 -19 -3 -45 -7 -59 -9 -15 -3 -9 -5 16 -6 76 -2 130
25 225 115 48 46 92 84 98 84 9 0 41 -27 41 -35 0 -17 -26 -54 -48 -68 -26
-16 -27 -16 -4 -17 30 0 74 23 142 75 94 72 136 89 215 90 105 0 193 -44 221
-111 29 -69 11 -169 -35 -194 -36 -19 -90 -12 -116 15 -29 28 -33 76 -9 99 30
31 69 12 62 -28 -6 -29 9 -31 26 -3 8 13 7 24 -4 45 -19 32 -60 40 -92 18 -13
-9 -43 -16 -73 -16 -34 0 -61 -7 -85 -22 l-35 -21 32 -9 c56 -15 92 -85 61
-116 -20 -20 -63 -13 -106 18 -77 56 -157 60 -257 14 -27 -13 -60 -24 -72 -24
-12 0 -25 -4 -28 -10 -9 -14 40 -12 110 5 69 17 143 19 178 6 13 -5 44 -27 69
-49 56 -48 91 -59 124 -37 58 38 55 84 -12 155 -46 50 -47 56 -4 60 43 4 48 1
55 -37 10 -55 32 -91 65 -108 72 -37 154 -2 181 78 8 26 18 49 21 52 2 3 24
-36 48 -85 23 -50 40 -93 38 -96 -3 -2 -27 15 -53 39 l-48 43 -27 -27 c-48
-48 -122 -57 -177 -21 -22 13 -23 13 -23 -9 0 -32 -10 -46 -42 -58 l-27 -10
47 -117 c56 -140 66 -149 167 -148 97 1 208 34 350 104 141 69 247 147 293
214 38 58 40 93 8 149 -13 23 -101 178 -195 345 -95 166 -174 302 -177 302 -2
0 -4 -6 -4 -14z"/>
<path d="M1620 1678 c-30 -5 -76 -8 -103 -6 -26 2 -47 2 -47 0 0 -1 6 -18 14
-37 l15 -35 51 26 c28 14 76 28 106 31 33 4 53 10 51 17 -5 15 -22 16 -87 4z"/>
<path d="M576 1585 c-95 -34 -136 -110 -144 -265 -4 -99 -2 -115 26 -211 56
-186 53 -219 -16 -219 -21 0 -43 5 -50 12 -8 8 -12 8 -12 1 0 -21 30 -35 70
-31 43 4 52 -5 21 -22 -54 -28 -108 5 -96 59 6 26 4 31 -12 31 -11 0 -29 -9
-41 -20 -12 -12 -22 -17 -22 -11 0 13 59 61 76 61 8 0 14 5 14 10 0 14 -16 12
-49 -5 -34 -17 -56 -68 -65 -150 -6 -50 -3 -65 14 -93 39 -63 155 -84 220 -39
73 48 101 167 64 268 -39 109 -54 266 -34 340 19 69 99 115 167 97 17 -4 45
-24 61 -44 l29 -35 17 41 c22 56 20 70 -15 113 -79 96 -209 104 -303 18 -25
-23 -27 -23 -18 -5 27 53 106 94 177 94 47 -1 108 -33 150 -81 27 -31 33 -35
20 -14 -28 48 -55 73 -100 95 -48 23 -94 25 -149 5z"/>
<path d="M923 1495 c-91 -39 -26 -134 152 -220 125 -61 219 -86 345 -90 l105
-4 -90 9 c-229 22 -515 161 -515 250 0 41 24 54 114 61 l81 6 -80 1 c-48 1
-92 -4 -112 -13z"/>
<path d="M1138 1493 c7 -3 16 -2 19 1 4 3 -2 6 -13 5 -11 0 -14 -3 -6 -6z"/>
<path d="M840 1366 c-26 -65 -22 -83 29 -129 129 -116 462 -220 605 -188 l53
12 16 59 c10 33 17 62 17 64 0 3 -17 -2 -37 -11 -29 -12 -59 -14 -128 -10
-202 13 -451 124 -515 230 l-17 28 -23 -55z"/>
<path d="M757 1163 c-216 -527 -249 -614 -242 -641 17 -70 190 -184 365 -241
210 -68 416 -67 448 3 5 12 51 186 102 385 82 328 101 419 70 350 -9 -22 -160
-634 -160 -651 0 -10 -61 -78 -70 -78 -4 0 33 160 82 356 49 196 87 361 85
367 -2 8 -126 -412 -209 -711 -9 -31 -10 -32 -63 -32 -30 0 -55 2 -55 4 0 2
38 164 85 360 47 196 85 363 85 371 0 53 -28 -26 -119 -332 -56 -192 -106
-351 -110 -355 -4 -5 -24 10 -45 31 l-39 39 72 332 c52 238 70 335 62 343 -7
7 -14 7 -20 2 -5 -6 -44 -120 -86 -255 -43 -135 -81 -251 -85 -259 -14 -26
-21 113 -11 215 12 118 34 230 60 307 l19 55 -68 51 c-38 28 -77 62 -87 76
l-18 25 -48 -117z"/>
<path d="M2577 1241 c-14 -69 -188 -211 -348 -285 -132 -60 -235 -88 -330 -90
-60 -1 -91 3 -102 13 -11 8 -17 9 -17 2 0 -16 40 -38 81 -45 80 -14 274 36
414 107 177 89 325 228 325 307 0 30 -17 24 -23 -9z"/>
<path d="M480 495 c0 -3 6 -20 14 -38 43 -105 306 -240 538 -277 104 -17 221
-9 256 17 40 30 37 44 -5 22 -105 -53 -410 5 -610 117 -73 41 -159 114 -168
145 -6 17 -25 28 -25 14z"/>
</g>
</svg>
