<?xml version="1.0" standalone="no"?>
<!DOCTYPE svg PUBLIC "-//W3C//DTD SVG 20010904//EN"
 "http://www.w3.org/TR/2001/REC-SVG-20010904/DTD/svg10.dtd">
<svg version="1.0" xmlns="http://www.w3.org/2000/svg"
 width="25.000000pt" height="25.000000pt" viewBox="0 0 300.000000 232.000000"
 preserveAspectRatio="xMidYMid meet">
<metadata>
Created by potrace 1.10, written by Peter Selinger 2001-2011
</metadata>
<g transform="translate(0.000000,232.000000) scale(0.100000,-0.100000)"
fill="#a3b4c2" stroke="none">
<path d="M1237 2309 c-102 -15 -763 -196 -753 -206 2 -2 95 21 207 51 291 79
489 125 567 132 63 6 89 1 407 -84 187 -50 444 -117 570 -148 127 -31 234 -59
238 -63 4 -4 -27 -18 -70 -32 -107 -33 -441 -147 -598 -204 -119 -44 -134 -47
-185 -40 -30 4 -72 8 -92 8 -24 1 -33 4 -25 10 7 5 0 6 -18 3 -16 -3 -55 1
-85 9 l-55 14 45 -4 c70 -7 43 0 -220 60 -618 140 -776 178 -793 193 -17 15
-16 17 25 28 174 48 236 64 253 67 11 2 27 7 35 10 8 3 109 31 225 62 216 57
269 74 261 83 -10 9 -875 -223 -881 -236 -3 -8 -1 -21 5 -30 5 -10 10 -12 10
-4 0 13 28 16 56 5 16 -6 16 -7 -2 -14 -11 -5 -1 -6 26 -3 34 3 40 2 25 -6
-16 -7 -11 -8 20 -5 32 4 36 3 20 -5 -16 -8 -14 -9 14 -5 19 3 31 2 28 -2 -4
-4 72 -26 170 -49 98 -24 276 -70 395 -103 196 -54 425 -106 503 -113 25 -3
35 -12 62 -63 42 -79 50 -133 28 -190 -9 -25 -24 -54 -33 -65 -17 -20 -17 -20
-112 5 -52 13 -183 40 -290 60 -107 20 -292 56 -410 81 -118 25 -287 59 -375
77 -88 17 -163 35 -166 40 -8 11 -72 5 -76 -8 -2 -6 20 -11 50 -12 53 -1 178
-25 370 -70 185 -43 111 -36 -118 12 -121 25 -223 44 -228 42 -6 -2 28 -11 74
-21 46 -10 158 -36 249 -58 203 -49 760 -160 775 -154 5 2 -1 5 -15 6 -14 1
-20 4 -14 6 6 3 64 -7 130 -22 65 -14 132 -25 147 -25 56 3 246 80 467 191 54
27 167 78 251 113 85 35 167 76 183 90 16 15 25 27 21 27 -4 0 -3 6 3 13 6 7
13 39 17 72 5 46 2 74 -13 120 l-20 60 5 -100 c7 -115 -1 -140 -64 -196 -27
-24 -68 -45 -138 -68 -139 -47 -355 -140 -514 -222 -75 -38 -140 -67 -147 -65
-6 2 -17 -1 -23 -7 -7 -7 1 14 18 47 45 85 40 144 -21 233 l-29 42 33 0 c33
-1 685 226 826 287 39 17 62 41 25 27 -11 -4 -14 -3 -9 5 4 7 1 12 -7 12 -8 0
-192 49 -409 110 -423 117 -682 185 -738 193 -19 2 -61 1 -93 -4z m-907 -289
c0 -5 -2 -10 -4 -10 -3 0 -8 5 -11 10 -3 6 -1 10 4 10 6 0 11 -4 11 -10z m987
-636 c-3 -3 -12 -4 -19 -1 -8 3 -5 6 6 6 11 1 17 -2 13 -5z"/>
<path d="M425 2090 c-13 -5 -14 -9 -5 -9 8 0 24 4 35 9 13 5 14 9 5 9 -8 0
-24 -4 -35 -9z"/>
<path d="M316 1904 c38 -110 27 -192 -30 -230 -33 -21 -28 -27 11 -14 76 27
84 197 14 289 -16 21 -16 15 5 -45z"/>
<path d="M385 1885 c64 -24 1193 -261 1202 -252 2 2 -25 10 -59 16 -35 7 -160
35 -278 62 -323 75 -922 195 -865 174z"/>
<path d="M585 1760 c253 -59 996 -212 1001 -207 2 2 -33 11 -79 21 -45 10
-178 40 -295 67 -215 49 -805 170 -826 168 -6 0 83 -22 199 -49z"/>
<path d="M1448 1743 c7 -3 16 -2 19 1 4 3 -2 6 -13 5 -11 0 -14 -3 -6 -6z"/>
<path d="M378 1723 c7 -3 16 -2 19 1 4 3 -2 6 -13 5 -11 0 -14 -3 -6 -6z"/>
<path d="M415 1715 c58 -22 1143 -251 1151 -242 5 5 -538 125 -851 188 -259
53 -332 66 -300 54z"/>
<path d="M345 1665 c62 -24 1180 -258 1200 -252 5 2 -20 9 -55 16 -36 7 -162
35 -280 62 -205 48 -848 180 -866 178 -5 0 -4 -2 1 -4z"/>
<path d="M1660 1669 c0 -4 9 -26 20 -50 26 -58 26 -140 0 -198 -23 -50 -21
-60 4 -32 58 64 58 193 1 258 -13 16 -25 25 -25 22z"/>
<path d="M2440 1657 c0 -5 10 -7 23 -4 12 3 40 2 62 -2 l40 -6 -65 -24 c-101
-37 -460 -220 -610 -311 -192 -117 -183 -113 -269 -112 -135 2 -543 68 -1174
189 -201 39 -251 51 -259 66 -5 10 -8 20 -6 22 6 6 251 45 287 45 31 1 33 2
17 11 -11 7 -38 9 -65 5 -25 -3 -88 -10 -140 -15 -51 -5 -98 -14 -104 -20 -7
-7 -7 -22 1 -49 l12 -38 95 -17 c52 -9 208 -44 347 -76 139 -33 278 -64 308
-70 30 -5 138 -26 239 -46 101 -20 185 -34 188 -32 2 3 -15 8 -39 12 -24 4
-50 11 -58 17 -12 7 -10 8 5 4 42 -12 222 -36 264 -36 39 0 49 -5 84 -42 30
-31 36 -35 23 -14 -10 16 -13 25 -7 22 6 -4 23 -29 36 -56 26 -51 35 -149 16
-179 -5 -8 -7 4 -4 32 5 37 0 58 -22 102 -15 31 -29 54 -32 52 -2 -3 3 -19 12
-37 9 -17 19 -53 22 -81 5 -42 1 -58 -26 -114 -18 -36 -36 -65 -40 -65 -21 0
-274 55 -503 109 -324 76 -766 162 -798 155 -20 -5 -22 -4 -10 6 12 8 7 9 -21
4 -22 -3 -39 -2 -43 5 -4 6 5 36 20 66 21 45 25 65 20 99 -6 39 -59 166 -70
166 -2 0 7 -34 20 -75 28 -89 32 -175 9 -175 -9 0 -28 -6 -43 -14 -45 -23 -76
-30 -67 -16 4 7 -7 4 -24 -6 -18 -10 -44 -37 -57 -60 -21 -35 -24 -54 -24
-130 0 -74 4 -98 24 -139 35 -72 51 -87 151 -147 50 -30 196 -125 325 -210
323 -213 466 -302 596 -369 l111 -58 59 14 c184 44 298 68 464 95 311 53 752
156 1049 246 79 24 158 44 174 44 24 0 28 3 24 20 -3 11 -1 23 4 26 19 11 -11
32 -55 38 -112 17 -155 177 -87 323 26 55 28 64 11 48 -35 -32 -71 -118 -72
-173 0 -57 30 -133 69 -174 16 -17 21 -28 13 -28 -7 0 -18 -7 -24 -16 -8 -10
-246 -73 -716 -189 -727 -180 -832 -207 -863 -220 -26 -11 -91 61 -113 127
-23 71 -21 184 5 267 16 52 18 68 8 80 -10 12 -9 13 8 7 11 -5 30 -11 42 -13
20 -5 20 -6 3 -23 -21 -21 -50 -139 -50 -204 0 -59 32 -158 65 -202 15 -19 29
-34 31 -32 1 2 -12 42 -31 88 -24 60 -35 101 -35 139 0 56 23 158 45 201 14
27 -26 17 755 190 273 60 769 178 882 210 21 6 42 19 48 30 9 17 1 22 -97 54
-60 19 -206 61 -325 95 l-217 60 -193 -106 c-194 -107 -239 -133 -225 -133 11
0 143 67 289 147 116 63 116 64 170 54 29 -5 109 -29 178 -54 69 -25 184 -58
255 -74 71 -16 130 -34 132 -40 3 -7 -39 -21 -109 -38 -235 -55 -663 -148
-938 -205 -346 -71 -453 -95 -549 -121 l-74 -20 -55 27 c-30 15 -182 112 -338
215 -155 104 -286 189 -289 189 -3 0 -3 -6 1 -12 5 -8 1 -8 -12 2 -29 22 -30
24 -12 17 25 -9 22 0 -3 14 -15 8 -19 8 -15 0 11 -17 -6 -13 -39 10 -17 12
-22 18 -10 14 11 -4 34 -9 50 -11 17 -2 127 -27 245 -54 412 -97 687 -160 758
-172 39 -6 69 -15 66 -19 -2 -4 21 -1 52 6 36 8 80 30 125 61 144 101 481 298
546 318 24 8 261 140 271 152 4 4 -2 4 -13 1 -20 -7 -20 -7 -1 8 11 8 24 15
30 15 5 0 7 3 4 6 -7 7 -398 -188 -538 -269 -137 -79 -328 -202 -362 -235 -16
-14 -28 -21 -28 -15 0 6 7 17 17 24 48 41 69 168 37 236 -23 47 -75 98 -84 83
-5 -8 -10 -9 -14 -2 -7 12 16 22 55 22 35 0 102 32 224 110 134 84 198 117
432 226 117 54 211 99 209 102 -2 2 -22 -6 -45 -17 -22 -12 -44 -21 -48 -20
-4 0 31 20 80 44 l87 43 -37 6 c-53 9 -133 5 -133 -7z m-2220 -536 c-14 -26
-28 -34 -47 -26 -14 5 -12 9 13 25 38 24 47 24 34 1z m-110 -32 c0 -5 4 -8 9
-4 19 11 90 -7 96 -25 6 -20 131 -45 150 -30 12 10 220 -117 545 -332 96 -63
193 -125 215 -136 22 -12 36 -21 31 -22 -5 0 -3 -6 3 -14 10 -12 9 -20 -3 -38
-30 -47 -49 -139 -43 -210 7 -78 31 -139 76 -191 l33 -37 -51 5 c-28 2 -57 7
-64 11 -6 4 -109 71 -227 149 -118 78 -345 224 -504 325 -285 181 -289 183
-312 235 -33 71 -44 140 -33 198 5 27 11 52 14 58 4 5 30 -9 59 -31 29 -22 58
-40 64 -40 7 0 12 -4 12 -10 0 -5 11 -12 25 -16 13 -3 29 -12 35 -19 7 -8 32
-24 56 -35 24 -12 44 -25 44 -29 0 -4 16 -13 35 -21 19 -8 35 -17 35 -22 0 -4
7 -8 15 -8 8 0 15 -5 15 -11 0 -5 4 -8 9 -5 5 3 14 -1 21 -9 7 -8 17 -15 23
-15 5 0 34 -16 63 -35 29 -19 57 -35 63 -35 6 0 11 -4 11 -8 0 -5 24 -21 53
-35 28 -15 70 -38 92 -52 22 -14 49 -29 60 -34 11 -5 36 -20 55 -33 19 -13 50
-30 68 -37 17 -7 32 -17 32 -22 0 -5 7 -9 15 -9 8 0 15 -4 15 -10 0 -5 9 -10
19 -10 11 0 21 -4 23 -9 2 -4 14 -12 28 -16 14 -4 23 -5 20 -2 -3 3 -135 81
-295 175 -391 229 -718 426 -749 453 -5 5 -2 19 8 33 17 27 36 34 36 15z
m2840 -639 c0 -11 -145 -63 -334 -120 -265 -80 -700 -181 -831 -193 -47 -4
-54 -4 -30 4 17 5 50 11 75 13 46 4 661 144 670 153 3 3 -17 2 -45 -1 -32 -4
-10 4 60 23 223 60 320 91 344 108 23 17 91 27 91 13z m-570 -160 c-34 -11
-60 -11 -35 0 11 5 29 8 40 8 16 0 15 -2 -5 -8z m-1140 -260 c13 -9 13 -10 0
-9 -8 0 -24 4 -35 9 -20 9 -20 9 0 9 11 0 27 -4 35 -9z"/>
<path d="M1040 121 c36 -29 100 -64 100 -54 0 4 -24 22 -52 38 -66 37 -80 42
-48 16z"/>
<path d="M2271 1594 c-58 -24 -107 -47 -110 -50 -19 -21 169 52 214 82 33 23
5 15 -104 -32z"/>
<path d="M2593 1626 c22 -17 47 -105 47 -166 0 -44 -40 -150 -57 -150 -5 0 -9
-9 -9 -20 0 -18 3 -17 23 8 42 51 67 114 66 167 -1 66 -41 169 -68 173 -19 3
-19 2 -2 -12z"/>
<path d="M1388 1353 c6 -2 18 -2 25 0 6 3 1 5 -13 5 -14 0 -19 -2 -12 -5z"/>
<path d="M1450 1340 c14 -4 34 -8 45 -8 16 0 15 2 -5 8 -14 4 -34 8 -45 8 -16
0 -15 -2 5 -8z"/>
<path d="M261 1327 c14 -16 1224 -276 1234 -265 6 6 -611 143 -910 202 -148
30 -283 58 -300 62 -16 4 -28 4 -24 1z"/>
<path d="M285 1245 c67 -25 1233 -271 1242 -262 1 2 -34 11 -80 21 -45 10
-179 40 -297 67 -118 28 -359 79 -535 115 -287 57 -362 71 -330 59z"/>
<path d="M1388 1163 c6 -2 18 -2 25 0 6 3 1 5 -13 5 -14 0 -19 -2 -12 -5z"/>
<path d="M1450 1151 c37 -12 109 -22 85 -12 -11 5 -40 11 -65 15 -30 4 -36 3
-20 -3z"/>
<path d="M305 1145 c69 -26 1142 -251 1151 -242 3 3 -12 8 -33 12 -21 3 -135
29 -253 56 -311 73 -922 195 -865 174z"/>
<path d="M1518 1053 c6 -2 18 -2 25 0 6 3 1 5 -13 5 -14 0 -19 -2 -12 -5z"/>
<path d="M1478 893 c6 -2 18 -2 25 0 6 3 1 5 -13 5 -14 0 -19 -2 -12 -5z"/>
<path d="M2455 704 c-159 -35 -409 -89 -555 -119 -457 -95 -610 -128 -606
-132 5 -5 429 75 701 132 192 41 756 170 780 180 40 15 -72 -6 -320 -61z"/>
<path d="M2485 619 c-148 -33 -430 -93 -625 -134 -484 -100 -561 -117 -557
-122 16 -16 1440 287 1465 311 9 9 2 8 -283 -55z"/>
<path d="M2480 534 c-157 -34 -460 -99 -675 -144 -346 -71 -559 -120 -455
-105 257 39 1418 290 1439 310 9 9 -26 2 -309 -61z"/>
<path d="M2515 455 c-159 -36 -423 -92 -585 -125 -418 -87 -581 -122 -576
-127 4 -5 531 95 750 143 215 46 720 165 725 170 9 9 -34 0 -314 -61z"/>
</g>
</svg>
